<?xml version="1.0" encoding="UTF-8" standalone="no"?><!DOCTYPE svg PUBLIC "-//W3C//DTD SVG 1.1//EN" "http://www.w3.org/Graphics/SVG/1.1/DTD/svg11.dtd"><svg width="100%" height="100%" viewBox="0 0 1280 1280" version="1.1" xmlns="http://www.w3.org/2000/svg" xmlns:xlink="http://www.w3.org/1999/xlink" xml:space="preserve" xmlns:serif="http://www.serif.com/" style="fill-rule:evenodd;clip-rule:evenodd;stroke-linejoin:round;stroke-miterlimit:1.41421;"><g><path d="M476.649,60.963c0,0 -23.024,85.333 -27.211,135.89c-4.192,50.606 10.168,89.639 23.737,129.007c13.57,39.368 42.02,67.254 85.106,55.709c43.087,-11.545 70.893,-42.022 54.658,-99.927c-13.031,-46.479 -36.808,-114.016 -70.336,-146.302c-33.528,-32.285 -46.516,-50.64 -65.954,-74.377Z" style="fill:#ffdc00;"/><path d="M482.435,343.933c0,0 -17.696,-54.312 -13.532,-80.248c0,0 13.004,68.195 45.836,115.14c0,0 17.13,-0.823 1.808,-54.299c0,0 20.195,43.014 26.79,59.549c0,0 -19.472,-63.026 -25.777,-92.639c0,0 23.287,64.186 45.898,88.631c0,0 18.486,0.793 18.367,-7.632c0,0 -0.922,-76.834 -16.6,-108.377c0,0 24.424,52.681 28.852,70.26c4.429,17.579 2.329,-68.193 -11.834,-115.141c-14.164,-46.948 39.447,89.508 23.271,133.246c-16.175,43.738 -83.975,69.127 -123.079,-8.49Z" style="fill:#fcc119;"/><path d="M476.649,60.963c0,0 -13.905,107.324 -5.453,147.919c8.452,40.594 27.966,145.986 54.509,173.765c0,0 -68.265,-209.396 -49.056,-321.684Z" style="fill:#ffcd00;"/><path d="M564.824,379.63c0,0 -39.938,-55.418 -45.083,-145.518c0,0 39.002,130.545 45.083,145.518Z" style="fill:#ffcd00;"/><path d="M505.31,96.079c0,0 77.337,202.135 59.514,283.551c0,0 33.705,-107.039 -59.514,-283.551" style="fill:#ffcd00;"/></g><g><path d="M121.303,341.563c0,0 44.059,76.62 76.848,115.33c32.82,38.747 70.574,56.195 108.007,74.437c37.432,18.242 77.268,17.843 99.571,-20.787c22.303,-38.63 20.414,-79.843 -32.01,-109.308c-42.081,-23.651 -106.649,-54.594 -153.186,-53.716c-46.538,0.879 -68.7,-2.917 -99.23,-5.956Z" style="fill:#ffdc00;"/><path d="M325.485,537.561c0,0 -50.918,-25.891 -66.313,-47.175c0,0 57.417,39.026 113.827,49.006c0,0 11.531,-12.695 -37.116,-39.674c0,0 44.695,16.136 61.05,23.164c0,0 -58.334,-30.797 -83.732,-47.279c0,0 61.852,28.921 95.126,30.218c0,0 13.632,-12.511 7.591,-18.385c0,0 -54.982,-53.677 -88.372,-64.896c0,0 54.521,19.981 70.083,29.28c15.562,9.299 -46.573,-49.866 -89.785,-73.049c-43.213,-23.182 91.184,35.398 110.674,77.763c19.49,42.366 -10.499,108.26 -93.033,81.027Z" style="fill:#fcc119;"/><path d="M121.303,341.563c0,0 66.058,85.722 100.739,108.45c34.681,22.728 123.003,83.453 161.414,84.327c0,0 -196.336,-99.794 -262.153,-192.777Z" style="fill:#ffcd00;"/><path d="M408.984,504.545c0,0 -67.427,-10.945 -134.775,-71.018c0,0 119.888,64.73 134.775,71.018Z" style="fill:#ffcd00;"/><path d="M166.401,346.128c0,0 197.616,88.245 242.583,158.417c0,0 -51.855,-99.521 -242.583,-158.417" style="fill:#ffcd00;"/></g><g><path d="M46.166,638.427c0,0 76.466,44.325 124.217,61.455c47.796,17.146 89.217,13.379 130.755,10.46c41.539,-2.918 75.838,-23.181 75.838,-67.787c0,-44.607 -22.242,-79.353 -82.376,-78.658c-48.268,0.557 -119.658,6.044 -159.521,30.073c-39.863,24.03 -60.954,31.824 -88.913,44.457Z" style="fill:#ffdc00;"/><path d="M320.991,706.076c0,0 -57.041,3.036 -81.015,-7.699c0,0 69.237,5.089 123.079,-14.474c0,0 3.639,-16.758 -51.98,-15.799c0,0 46.775,-8.375 64.453,-10.465c0,0 -65.918,2.496 -96.154,0.921c0,0 68.026,-5.88 97.491,-21.394c0,0 5.55,-17.651 -2.619,-19.716c0,0 -74.454,-18.996 -108.98,-12.017c0,0 57.207,-9.956 75.333,-9.684c18.127,0.273 -65.266,-19.898 -114.28,-18.369c-49.014,1.53 96.667,-14.937 134.728,12.008c38.062,26.944 45.037,99.005 -40.056,116.688Z" style="fill:#fcc119;"/><path d="M46.166,638.427c0,0 100.068,41.208 141.467,43.551c41.399,2.343 148.25,10.771 181.952,-7.678c0,0 -219.929,11.744 -323.419,-35.873Z" style="fill:#ffcd00;"/><path d="M376.796,635.733c0,0 -63.866,24.235 -152.228,5.885c0,0 136.191,-3.887 152.228,-5.885Z" style="fill:#ffcd00;"/><path d="M87.504,619.831c0,0 215.263,-22.385 289.292,15.902c0,0 -94.668,-60.26 -289.292,-15.902" style="fill:#ffcd00;"/></g><g><path d="M68.45,791.245c0,0 85.333,23.023 135.89,27.211c50.606,4.191 89.639,-10.168 129.007,-23.738c39.368,-13.57 67.255,-42.02 55.709,-85.106c-11.545,-43.087 -42.022,-70.892 -99.927,-54.658c-46.479,13.032 -114.016,36.808 -146.301,70.336c-32.286,33.529 -50.641,46.516 -74.378,65.955Z" style="fill:#ffdc00;"/><path d="M351.42,785.458c0,0 -54.312,17.696 -80.248,13.532c0,0 68.195,-13.004 115.14,-45.836c0,0 -0.823,-17.129 -54.299,-1.807c0,0 43.014,-20.196 59.549,-26.791c0,0 -63.026,19.472 -92.639,25.777c0,0 64.186,-23.286 88.631,-45.897c0,0 0.793,-18.487 -7.632,-18.367c0,0 -76.834,0.921 -108.377,16.599c0,0 52.681,-24.424 70.26,-28.852c17.58,-4.428 -68.193,-2.328 -115.141,11.835c-46.948,14.163 89.508,-39.448 133.246,-23.272c43.738,16.175 69.127,83.975 -8.49,123.079Z" style="fill:#fcc119;"/><path d="M68.45,791.245c0,0 107.324,13.904 147.919,5.452c40.594,-8.452 145.986,-27.966 173.765,-54.509c0,0 -209.396,68.266 -321.684,49.057Z" style="fill:#ffcd00;"/><path d="M387.117,703.069c0,0 -55.418,39.939 -145.518,45.084c0,0 130.545,-39.003 145.518,-45.084Z" style="fill:#ffcd00;"/><path d="M103.566,762.584c0,0 202.135,-77.337 283.551,-59.515c0,0 -107.039,-33.705 -283.551,59.515" style="fill:#ffcd00;"/></g><g><path d="M225.235,1054.29c0,0 85.412,-22.727 131.29,-44.379c45.921,-21.673 72.545,-53.626 99.854,-85.062c27.309,-31.435 37.234,-70.016 5.692,-101.558c-31.541,-31.542 -71.838,-40.384 -113.868,2.629c-33.736,34.525 -80.337,88.884 -91.533,134.063c-11.196,45.179 -20.598,65.604 -31.435,94.307Z" style="fill:#ffdc00;"/><path d="M467.4,907.793c0,0 -38.187,42.481 -62.73,51.843c0,0 52.556,-45.359 76.796,-97.265c0,0 -9.277,-14.423 -47.928,25.584c0,0 27.154,-38.997 38.175,-52.975c0,0 -44.846,48.376 -67.339,68.643c0,0 43.944,-52.26 53.808,-84.065c0,0 -8.556,-16.406 -15.793,-12.09c0,0 -66.079,39.215 -85.557,68.564c0,0 33.411,-47.492 46.421,-60.116c13.01,-12.625 -60.221,32.079 -93.798,67.819c-33.576,35.74 57.792,-78.916 103.758,-86.777c45.966,-7.86 101.854,38.162 54.187,110.835Z" style="fill:#fcc119;"/><path d="M225.235,1054.29c0,0 99.897,-41.62 130.827,-69.237c30.93,-27.617 112.445,-97.213 123.23,-134.089c0,0 -147.209,163.817 -254.057,203.326Z" style="fill:#ffcd00;"/><path d="M457.121,818.593c0,0 -28.024,62.297 -103.481,111.803c0,0 93.554,-99.05 103.481,-111.803Z" style="fill:#ffcd00;"/><path d="M241.316,1011.91c0,0 136.385,-168.043 215.805,-193.317c0,0 -109.552,24.33 -215.805,193.317" style="fill:#ffcd00;"/></g><g><path d="M492.536,1203.7c0,0 62.606,-62.388 91.511,-104.079c28.932,-41.73 36.013,-82.714 43.946,-123.592c7.932,-40.878 -2.763,-79.253 -45.85,-90.798c-43.086,-11.545 -82.405,0.946 -97.298,59.21c-11.954,46.768 -25.132,117.145 -12.238,161.869c12.893,44.725 14.963,67.114 19.929,97.39Z" style="fill:#ffdc00;"/><path d="M629.01,955.748c0,0 -11.831,55.884 -28.405,76.263c0,0 22.836,-65.561 17.875,-122.632c0,0 -15.246,-7.853 -28.715,46.12c0,0 4.017,-47.349 6.573,-64.966c0,0 -14.649,64.318 -23.996,93.116c0,0 11.927,-67.23 4.567,-99.706c0,0 -15.613,-9.929 -19.722,-2.574c0,0 -37.619,67.002 -39.813,102.157c0,0 5.189,-57.834 10.144,-75.273c4.954,-17.438 -36.113,57.893 -47.322,105.633c-11.208,47.74 10.592,-97.239 46.469,-127.03c35.878,-29.791 107.288,-17.878 102.345,68.892Z" style="fill:#fcc119;"/><path d="M492.536,1203.7c0,0 65.704,-85.993 78.682,-125.375c12.977,-39.382 48.773,-140.411 39.676,-177.739c0,0 -45.578,215.474 -118.358,303.114Z" style="fill:#ffcd00;"/><path d="M575.507,883.639c0,0 6.879,67.962 -33.715,148.564c0,0 31.495,-132.556 33.715,-148.564Z" style="fill:#ffcd00;"/><path d="M485.273,1158.96c0,0 34.092,-213.722 90.234,-275.319c0,0 -82.709,75.846 -90.234,275.319" style="fill:#ffcd00;"/></g><g><path d="M940.575,1138.37c0,0 0.153,-88.384 -8.888,-138.302c-9.049,-49.966 -33.022,-83.954 -56.318,-118.468c-23.297,-34.514 -57.994,-54.087 -96.625,-31.784c-38.63,22.304 -57.6,58.939 -26.932,110.669c24.617,41.523 65.063,100.605 105.805,123.112c40.742,22.508 58.038,36.876 82.958,54.773Z" style="fill:#ffdc00;"/><path d="M861.747,866.536c0,0 31.15,47.881 33.841,74.011c0,0 -30.211,-62.506 -74.075,-99.353c0,0 -16.333,5.228 12.308,52.916c0,0 -30.64,-36.321 -41.29,-50.585c0,0 35.121,55.838 48.875,82.81c0,0 -39.105,-55.972 -67.273,-73.732c0,0 -18.061,4.019 -15.766,12.126c0,0 20.777,73.977 44.084,100.388c0,0 -37.226,-44.565 -46.053,-60.399c-8.828,-15.834 15.4,66.472 41.232,108.155c25.831,41.682 -61.27,-76.248 -56.966,-122.682c4.304,-46.435 63.223,-88.506 121.083,-23.655Z" style="fill:#fcc119;"/><path d="M940.575,1138.37c0,0 -14.347,-107.266 -33.018,-144.29c-18.671,-37.023 -64.797,-133.773 -97.625,-153.736c0,0 120.135,184.593 130.643,298.026Z" style="fill:#ffcd00;"/><path d="M772.926,853.379c0,0 52.921,43.193 81.211,128.891c0,0 -71.462,-116.002 -81.211,-128.891Z" style="fill:#ffcd00;"/><path d="M903.801,1111.87c0,0 -127.018,-175.231 -130.875,-258.486c0,0 -4.853,112.115 130.875,258.486" style="fill:#ffcd00;"/></g><g><path d="M1211.19,775.357c0,0 -62.388,-62.606 -104.079,-91.511c-41.73,-28.932 -82.713,-36.013 -123.592,-43.945c-40.878,-7.933 -79.253,2.762 -90.798,45.849c-11.545,43.087 0.946,82.406 59.21,97.298c46.768,11.955 117.145,25.132 161.869,12.238c44.725,-12.893 67.114,-14.963 97.39,-19.929Z" style="fill:#ffdc00;"/><path d="M963.235,638.884c0,0 55.884,11.83 76.263,28.404c0,0 -65.561,-22.836 -122.632,-17.875c0,0 -7.853,15.246 46.12,28.715c0,0 -47.349,-4.017 -64.966,-6.573c0,0 64.318,14.65 93.117,23.996c0,0 -67.231,-11.926 -99.707,-4.567c0,0 -9.929,15.613 -2.573,19.722c0,0 67.001,37.619 102.157,39.813c0,0 -57.835,-5.189 -75.273,-10.143c-17.439,-4.955 57.892,36.113 105.632,47.321c47.74,11.208 -97.239,-10.591 -127.03,-46.469c-29.791,-35.877 -17.878,-107.288 68.892,-102.344Z" style="fill:#fcc119;"/><path d="M1211.19,775.357c0,0 -85.993,-65.704 -125.375,-78.681c-39.382,-12.978 -140.411,-48.774 -177.739,-39.676c0,0 215.474,45.578 303.114,118.357Z" style="fill:#ffcd00;"/><path d="M891.126,692.386c0,0 67.962,-6.879 148.564,33.715c0,0 -132.556,-31.495 -148.564,-33.715Z" style="fill:#ffcd00;"/><path d="M1166.44,782.62c0,0 -213.722,-34.091 -275.319,-90.234c0,0 75.846,82.709 275.319,90.234" style="fill:#ffcd00;"/></g><g><path d="M1137.38,284.192c0,0 -88.262,4.655 -137.614,16.398c-49.4,11.754 -82.033,37.541 -115.228,62.68c-33.196,25.14 -50.852,60.851 -26.481,98.211c24.372,37.36 61.985,54.309 111.97,20.872c40.122,-26.84 96.916,-70.44 117.174,-112.347c20.258,-41.906 33.664,-59.957 50.179,-85.814Z" style="fill:#ffdc00;"/><path d="M870.243,377.691c0,0 46.115,-33.709 72.06,-37.817c0,0 -60.769,33.567 -95.176,79.37c0,0 6.109,16.024 52.168,-15.168c0,0 -34.601,32.571 -48.264,43.98c0,0 53.845,-38.106 80.029,-53.308c0,0 -53.762,42.093 -69.963,71.185c0,0 4.995,17.816 12.965,15.083c0,0 72.738,-24.77 97.842,-49.48c0,0 -42.474,39.596 -57.804,49.271c-15.331,9.676 65.535,-18.994 105.751,-47.055c40.215,-28.061 -72.802,65.327 -119.401,63.556c-46.6,-1.772 -91.815,-58.314 -30.207,-119.617Z" style="fill:#fcc119;"/><path d="M1137.38,284.192c0,0 -106.327,20.161 -142.28,40.818c-35.953,20.658 -130.05,71.98 -148.197,105.845c0,0 177.783,-129.999 290.477,-146.663Z" style="fill:#ffcd00;"/><path d="M861.937,467.096c0,0 40.25,-55.192 124.282,-88.102c0,0 -111.942,77.666 -124.282,88.102Z" style="fill:#ffcd00;"/><path d="M1112.92,322.353c0,0 -168.061,136.363 -250.983,144.743c0,0 112.214,-1.253 250.983,-144.743" style="fill:#ffcd00;"/></g><g><path d="M1040.27,208.294c0,0 -85.412,22.727 -131.29,44.379c-45.921,21.673 -72.546,53.626 -99.854,85.062c-27.309,31.435 -37.234,70.017 -5.693,101.558c31.542,31.542 71.839,40.384 113.868,-2.629c33.737,-34.525 80.337,-88.884 91.533,-134.063c11.197,-45.179 20.599,-65.604 31.436,-94.307Z" style="fill:#ffdc00;"/><path d="M798.107,354.79c0,0 38.187,-42.481 62.73,-51.843c0,0 -52.557,45.359 -76.796,97.265c0,0 9.277,14.423 47.928,-25.584c0,0 -27.154,38.997 -38.176,52.975c0,0 44.846,-48.376 67.34,-68.643c0,0 -43.944,52.26 -53.809,84.065c0,0 8.557,16.406 15.793,12.09c0,0 66.08,-39.215 85.558,-68.564c0,0 -33.411,47.492 -46.421,60.117c-13.01,12.624 60.221,-32.08 93.798,-67.82c33.576,-35.74 -57.792,78.916 -103.759,86.777c-45.966,7.86 -101.853,-38.162 -54.186,-110.835Z" style="fill:#fcc119;"/><path d="M1040.27,208.294c0,0 -99.898,41.62 -130.828,69.237c-30.93,27.617 -112.444,97.213 -123.23,134.089c0,0 147.209,-163.817 254.058,-203.326Z" style="fill:#ffcd00;"/><path d="M808.386,443.99c0,0 28.024,-62.297 103.481,-111.803c0,0 -93.554,99.05 -103.481,111.803Z" style="fill:#ffcd00;"/><path d="M1024.19,250.673c0,0 -136.385,168.043 -215.805,193.317c0,0 109.551,-24.33 215.805,-193.317" style="fill:#ffcd00;"/></g><g><path d="M782.844,56.706c0,0 -62.606,62.389 -91.51,104.079c-28.933,41.73 -36.014,82.714 -43.946,123.592c-7.933,40.879 2.762,79.254 45.849,90.799c43.087,11.545 82.406,-0.946 97.298,-59.211c11.955,-46.768 25.132,-117.145 12.239,-161.869c-12.894,-44.724 -14.964,-67.114 -19.93,-97.39Z" style="fill:#ffdc00;"/><path d="M646.371,304.658c0,0 11.83,-55.883 28.404,-76.262c0,0 -22.835,65.56 -17.875,122.632c0,0 15.246,7.852 28.715,-46.121c0,0 -4.017,47.349 -6.573,64.966c0,0 14.65,-64.318 23.996,-93.116c0,0 -11.926,67.23 -4.567,99.706c0,0 15.613,9.93 19.722,2.574c0,0 37.619,-67.001 39.813,-102.157c0,0 -5.189,57.834 -10.143,75.273c-4.955,17.438 36.113,-57.893 47.321,-105.633c11.208,-47.739 -10.591,97.24 -46.469,127.03c-35.877,29.791 -107.288,17.878 -102.344,-68.892Z" style="fill:#fcc119;"/><path d="M782.844,56.706c0,0 -65.704,85.993 -78.681,125.375c-12.978,39.382 -48.774,140.411 -39.676,177.74c0,0 45.578,-215.475 118.357,-303.115Z" style="fill:#ffcd00;"/><path d="M699.873,376.768c0,0 -6.879,-67.963 33.715,-148.565c0,0 -31.494,132.557 -33.715,148.565Z" style="fill:#ffcd00;"/><path d="M790.107,101.448c0,0 -34.091,213.722 -90.234,275.32c0,0 82.709,-75.846 90.234,-275.32" style="fill:#ffcd00;"/></g><g><path d="M623.662,52.164c0,0 0.385,-2.852 -38.26,65.966c-38.645,68.817 -29.331,133.556 -26.386,175.469c2.944,41.912 31.512,76.52 76.52,76.52c45.008,0 64.739,-31.839 67.285,-80.478c2.546,-48.64 -15.333,-127.332 -39.579,-167.553c-24.246,-40.222 -26.833,-41.714 -39.58,-69.924Z" style="fill:#ffdc00;"/><path d="M580.828,346.854c0,0 -12.969,-45.001 -4.133,-82.647c0,0 0.478,61.141 12.543,90.451c0,0 -7.528,-27.245 5.09,-70.091c0,0 -2.371,49.629 13.77,80.736c0,0 2.222,-64.513 12.919,-85.034c0,0 -6.561,60.863 -3.512,87.863l9.781,1.587c0,0 27.106,-46.314 28.695,-77.382c0,0 -5.81,64.985 -16.655,77.705c0,0 30.197,-8.76 32.928,-95.504c0,0 -1.345,74.532 -7.496,89.81c-6.152,15.278 -39.258,13.597 -39.258,13.597l-20.529,-5.47c0,0 -20.112,-7.7 -24.143,-25.621Z" style="fill:#fcc119;"/><path d="M623.662,52.164c0,0 -29.471,63.55 -29.867,98.471c-0.395,34.921 4.951,78.262 1.959,102.14c-2.993,23.879 -2.345,91.344 12.344,112.528c0,0 -8.449,-21.217 0.526,-110.882c7.926,-79.186 -27.376,-100.051 15.038,-202.257Z" style="fill:#ffcd00;"/><path d="M623.662,52.164c0,0 15.365,117.584 15.203,154.738c-0.161,37.154 11.893,109.223 -11.579,162.817c0,0 49.973,-49.116 -3.624,-317.555Z" style="fill:#ffcd00;"/><path d="M623.662,52.164c0,0 64.011,181.983 53.027,237.971c0,0 31.75,-48.488 -53.027,-237.971Z" style="fill:#ffcd00;"/></g><g><path d="M975.662,142.282c0,0 2.153,-1.91 -72.045,24.996c-74.198,26.905 -109.403,82.028 -134.532,115.701c-25.13,33.672 -26.08,78.538 8.016,107.919c34.095,29.38 69.827,18.141 103.506,-17.044c33.68,-35.184 71.504,-106.468 79.393,-152.765c7.889,-46.298 6.903,-49.116 15.662,-78.807Z" style="fill:#ffdc00;"/><path d="M750.844,337.561c0,0 19.551,-42.557 50.82,-65.307c0,0 -39.55,46.629 -49.543,76.709c0,0 12.081,-25.554 49.61,-49.775c0,0 -34.193,36.048 -42.272,70.15c0,0 43.796,-47.421 65.296,-55.983c0,0 -44.701,41.823 -60.016,64.267l6.373,7.587c0,0 50.768,-17.39 72.252,-39.888c0,0 -46.823,45.435 -63.342,47.992c0,0 28.594,13.077 87.289,-50.853c0,0 -49.673,55.583 -64.307,63.141c-14.633,7.559 -38.614,-15.326 -38.614,-15.326l-11.982,-17.545c0,0 -10.209,-18.962 -1.564,-35.169Z" style="fill:#fcc119;"/><path d="M975.662,142.282c0,0 -63.811,28.903 -86.906,55.099c-23.095,26.196 -47.338,62.519 -65.192,78.655c-17.854,16.135 -61.404,67.666 -64.105,93.302c0,0 7.45,-21.588 72.781,-83.654c57.696,-54.813 44.573,-93.664 143.422,-143.402Z" style="fill:#ffcd00;"/><path d="M975.662,142.282c0,0 -65.118,99.104 -89.493,127.145c-24.376,28.04 -62.29,90.504 -115.057,115.782c0,0 69.919,-4.585 204.55,-242.927Z" style="fill:#ffcd00;"/><path d="M975.662,142.282c0,0 -70.305,179.645 -115.174,214.889c0,0 55.704,-16.007 115.174,-214.889Z" style="fill:#ffcd00;"/></g><g><path d="M368.384,113.179c0,0 -1.093,-2.662 -0.152,76.258c0.941,78.92 41.377,130.329 64.884,165.154c23.506,34.825 65.55,50.512 104.528,28.008c38.978,-22.504 40.147,-59.943 18.032,-103.339c-22.115,-43.396 -76.945,-102.605 -118.054,-125.315c-41.108,-22.71 -44.094,-22.708 -69.238,-40.766Z" style="fill:#ffdc00;"/><path d="M478.633,389.805c0,0 -33.732,-32.487 -44.903,-69.508c0,0 30.985,52.711 56.089,72.061c0,0 -20.142,-19.83 -30.638,-63.245c0,0 22.761,44.166 52.293,63.035c0,0 -30.332,-56.981 -31.328,-80.102c0,0 24.749,55.99 40.889,77.848l9.265,-3.516c0,0 0.317,-53.663 -13.841,-81.362c0,0 27.46,59.183 24.429,75.621c0,0 21.771,-22.684 -19.235,-99.173c0,0 36.101,65.22 38.413,81.527c2.311,16.307 -27.2,31.404 -27.2,31.404l-20.514,5.527c0,0 -21.267,3.388 -33.719,-10.117Z" style="fill:#fcc119;"/><path d="M368.384,113.179c0,0 6.252,69.772 23.37,100.212c17.118,30.439 43.419,65.301 52.766,87.477c9.348,22.175 43.642,80.278 66.954,91.28c0,0 -17.925,-14.151 -54.985,-96.29c-32.729,-72.541 -73.734,-72.959 -88.105,-182.679Z" style="fill:#ffcd00;"/><path d="M368.384,113.179c0,0 72.098,94.148 90.535,126.405c18.437,32.257 64.911,88.644 71.381,146.794c0,0 18.72,-67.522 -161.916,-273.199Z" style="fill:#ffcd00;"/><path d="M368.384,113.179c0,0 146.426,125.596 164.908,179.576c0,0 3.252,-57.867 -164.908,-179.576Z" style="fill:#ffcd00;"/></g><g><path d="M219.395,222.003c0,0 -1.744,-2.288 19.591,73.699c21.335,75.987 73.699,115.179 105.418,142.733c31.718,27.555 76.39,31.826 108.216,0c31.825,-31.825 23.264,-68.291 -9.329,-104.484c-32.593,-36.194 -100.88,-79.194 -146.465,-90.491c-45.586,-11.297 -48.47,-10.522 -77.431,-21.457Z" style="fill:#ffdc00;"/><path d="M397.484,460.669c0,0 -40.991,-22.65 -61.363,-55.518c0,0 43.572,42.895 72.828,55.089c0,0 -24.588,-13.941 -45.962,-53.161c0,0 33.416,36.77 66.825,47.353c0,0 -44.046,-47.189 -50.992,-69.264c0,0 38.397,47.676 59.645,64.612l8.038,-5.794c0,0 -13.582,-51.916 -34.427,-75.008c0,0 41.843,50.06 43.169,66.723c0,0 15.158,-27.546 -44.248,-90.816c0,0 51.752,53.654 58.205,68.807c6.453,15.153 -18.145,37.373 -18.145,37.373l-18.385,10.649c0,0 -19.665,8.776 -35.188,-1.045Z" style="fill:#fcc119;"/><path d="M219.395,222.003c0,0 24.098,65.777 48.511,90.749c24.413,24.972 58.841,51.839 73.609,70.839c14.768,19.001 62.932,66.248 88.297,70.841c0,0 -20.976,-9.029 -78.033,-78.778c-50.388,-61.598 -90.105,-51.389 -132.384,-153.651Z" style="fill:#ffcd00;"/><path d="M219.395,222.003c0,0 94.009,72.28 120.167,98.666c26.157,26.386 85.641,68.823 106.941,123.317c0,0 0.607,-70.066 -227.108,-221.983Z" style="fill:#ffcd00;"/><path d="M219.395,222.003c0,0 173.944,83.419 205.767,130.776c0,0 -11.836,-56.737 -205.767,-130.776Z" style="fill:#ffcd00;"/></g><g><path d="M62.482,545.69c0,0 -2.851,-0.385 65.966,38.26c68.818,38.645 133.557,29.331 175.469,26.386c41.913,-2.944 76.521,-31.512 76.521,-76.52c0,-45.008 -31.839,-64.739 -80.479,-67.285c-48.639,-2.546 -127.331,15.333 -167.553,39.579c-40.222,24.246 -41.713,26.833 -69.924,39.58Z" style="fill:#ffdc00;"/><path d="M357.172,588.524c0,0 -45.001,12.969 -82.647,4.133c0,0 61.141,-0.478 90.451,-12.543c0,0 -27.244,7.528 -70.091,-5.09c0,0 49.63,2.371 80.737,-13.77c0,0 -64.513,-2.222 -85.034,-12.92c0,0 60.862,6.562 87.862,3.513l1.588,-9.781c0,0 -46.315,-27.107 -77.382,-28.695c0,0 64.984,5.81 77.704,16.655c0,0 -8.759,-30.197 -95.504,-32.929c0,0 74.533,1.346 89.811,7.497c15.278,6.152 13.597,39.258 13.597,39.258l-5.471,20.529c0,0 -7.699,20.112 -25.621,24.143Z" style="fill:#fcc119;"/><path d="M62.482,545.69c0,0 63.551,29.471 98.472,29.866c34.92,0.396 78.262,-4.95 102.14,-1.958c23.878,2.993 91.344,2.345 112.528,-12.344c0,0 -21.218,8.449 -110.882,-0.526c-79.187,-7.926 -100.052,27.376 -202.258,-15.038Z" style="fill:#ffcd00;"/><path d="M62.482,545.69c0,0 117.584,-15.365 154.738,-15.203c37.154,0.161 109.223,-11.893 162.818,11.579c0,0 -49.116,-49.973 -317.556,3.624Z" style="fill:#ffcd00;"/><path d="M62.482,545.69c0,0 181.984,-64.011 237.972,-53.027c0,0 -48.488,-31.75 -237.972,53.027Z" style="fill:#ffcd00;"/></g><g><path d="M150.069,934.879c0,0 -2.662,1.093 76.258,0.152c78.92,-0.942 130.329,-41.378 165.154,-64.884c34.825,-23.506 50.512,-65.55 28.008,-104.528c-22.504,-38.978 -59.943,-40.147 -103.339,-18.032c-43.396,22.115 -102.605,76.945 -125.315,118.054c-22.71,41.108 -22.708,44.094 -40.766,69.238Z" style="fill:#ffdc00;"/><path d="M426.695,824.63c0,0 -32.487,33.732 -69.508,44.903c0,0 52.711,-30.985 72.061,-56.089c0,0 -19.83,20.142 -63.245,30.638c0,0 44.166,-22.761 63.035,-52.293c0,0 -56.981,30.332 -80.102,31.328c0,0 55.99,-24.749 77.848,-40.889l-3.516,-9.265c0,0 -53.663,-0.318 -81.362,13.841c0,0 59.183,-27.461 75.621,-24.429c0,0 -22.684,-21.771 -99.173,19.235c0,0 65.22,-36.101 81.527,-38.413c16.307,-2.311 31.403,27.2 31.403,27.2l5.528,20.514c0,0 3.388,21.267 -10.117,33.719Z" style="fill:#fcc119;"/><path d="M150.069,934.879c0,0 69.772,-6.252 100.212,-23.37c30.439,-17.118 65.301,-43.419 87.477,-52.766c22.175,-9.348 80.278,-43.642 91.28,-66.954c0,0 -14.151,17.925 -96.29,54.985c-72.541,32.729 -72.959,73.734 -182.679,88.105Z" style="fill:#ffcd00;"/><path d="M150.069,934.879c0,0 94.148,-72.098 126.405,-90.535c32.257,-18.437 88.644,-64.911 146.794,-71.381c0,0 -67.522,-18.72 -273.199,161.916Z" style="fill:#ffcd00;"/><path d="M150.069,934.879c0,0 125.596,-146.426 179.576,-164.908c0,0 -57.867,-3.252 -179.576,164.908Z" style="fill:#ffcd00;"/></g><g><path d="M673.165,1210.01c0,0 -0.333,2.858 37.071,-66.642c37.404,-69.5 26.93,-134.061 23.234,-175.914c-3.696,-41.853 -32.88,-75.943 -77.881,-75.135c-45.001,0.807 -64.158,32.995 -65.83,81.672c-1.673,48.678 17.615,127.036 42.579,166.816c24.963,39.781 27.577,41.225 40.827,69.203Z" style="fill:#ffdc00;"/><path d="M710.705,914.603c0,0 13.775,44.761 5.616,82.559c0,0 -1.575,-61.122 -14.164,-90.211c0,0 8.016,27.105 -3.832,70.171c0,0 1.481,-49.664 -15.216,-80.476c0,0 -1.064,64.542 -11.392,85.251c0,0 5.469,-60.97 1.936,-87.911l-9.808,-1.412c0,0 -26.271,46.794 -27.302,77.885c0,0 4.643,-65.078 15.258,-77.991c0,0 -30.035,9.3 -31.21,96.08c0,0 0.008,-74.545 5.885,-89.931c5.876,-15.386 39.007,-14.299 39.007,-14.299l20.624,5.101c0,0 20.246,7.338 24.598,25.184Z" style="fill:#fcc119;"/><path d="M673.165,1210.01c0,0 28.327,-64.069 28.096,-98.991c-0.232,-34.922 -6.355,-78.161 -3.791,-102.089c2.564,-23.928 0.705,-91.371 -14.361,-112.288c0,0 8.828,21.062 1.463,110.873c-6.504,79.316 29.167,99.545 -11.407,202.495Z" style="fill:#ffcd00;"/><path d="M673.165,1210.01c0,0 -17.471,-117.29 -17.976,-154.44c-0.506,-37.151 -13.851,-108.993 8.656,-163c0,0 -49.084,50.005 9.32,317.44Z" style="fill:#ffcd00;"/><path d="M673.165,1210.01c0,0 -67.265,-180.806 -57.287,-236.982c0,0 -30.875,49.05 57.287,236.982Z" style="fill:#ffcd00;"/></g><g><path d="M1122.9,950.04c0,0 2.339,1.676 -40.346,-64.711c-42.684,-66.388 -104.24,-88.497 -142.645,-105.536c-38.406,-17.04 -82.366,-8.02 -103.457,31.74c-21.091,39.761 -2.21,72.111 39.565,97.153c41.775,25.042 119.671,46.123 166.565,43.552c46.894,-2.571 49.423,-4.157 80.318,-2.198Z" style="fill:#ffdc00;"/><path d="M882.642,774.106c0,0 45.832,9.631 74.948,35.078c0,0 -54.236,-28.229 -85.783,-31.305c0,0 27.596,6.116 59.534,37.342c0,0 -42.732,-25.352 -77.776,-25.67c0,0 55.95,32.194 69.065,51.261c0,0 -50.691,-34.317 -75.972,-44.276l-5.986,7.896c0,0 28.212,45.65 54.914,61.612c0,0 -54.685,-35.585 -60.84,-51.126c0,0 -6.413,30.78 68.938,73.843c0,0 -65.212,-36.115 -75.826,-48.709c-10.614,-12.594 6.384,-41.052 6.384,-41.052l14.453,-15.572c0,0 16.227,-14.159 33.947,-9.322Z" style="fill:#fcc119;"/><path d="M1122.9,950.04c0,0 -42.33,-55.816 -72.994,-72.529c-30.664,-16.713 -71.458,-32.3 -91.15,-46.133c-19.691,-13.834 -79.595,-44.876 -105.192,-41.827c0,0 22.703,2.479 97.708,52.425c66.239,44.109 101.214,22.701 171.628,108.064Z" style="fill:#ffcd00;"/><path d="M1122.9,950.04c0,0 -111.074,-41.528 -143.821,-59.081c-32.746,-17.553 -102.061,-40.677 -138.408,-86.527c0,0 19.972,67.163 282.229,145.608Z" style="fill:#ffcd00;"/><path d="M1122.9,950.04c0,0 -190.761,-28.731 -235.074,-64.671c0,0 27.956,50.77 235.074,64.671Z" style="fill:#ffcd00;"/></g><g><path d="M1187.91,415.79c0,0 2.793,-0.693 -75.422,-11.259c-78.216,-10.566 -134.967,21.95 -172.844,40.132c-37.878,18.182 -59.523,57.493 -42.937,99.333c16.585,41.841 53.455,48.451 99.609,32.894c46.155,-15.558 112.72,-61.177 141.177,-98.539c28.456,-37.361 28.889,-40.316 50.417,-62.561Z" style="fill:#ffdc00;"/><path d="M898.174,484.565c0,0 37.055,-28.64 75.308,-34.298c0,0 -56.662,22.975 -79.463,44.992c0,0 22.552,-17.038 67.034,-21.097c0,0 -47.011,16.084 -69.98,42.552c0,0 60.791,-21.708 83.81,-19.325c0,0 -58.997,16.329 -82.973,29.113l2.128,9.678c0,0 53.044,8.131 82.511,-1.84c0,0 -62.553,18.545 -78.374,13.151c0,0 19.271,24.844 100.917,-4.582c0,0 -69.783,26.215 -86.252,26.126c-16.47,-0.089 -27.107,-31.484 -27.107,-31.484l-2.48,-21.101c0,0 -0.253,-21.533 14.921,-31.885Z" style="fill:#fcc119;"/><path d="M1187.91,415.79c0,0 -69.938,-3.979 -102.547,8.522c-32.609,12.501 -70.93,33.443 -94.231,39.46c-23.3,6.017 -85.779,31.481 -100.059,52.942c0,0 16.61,-15.672 103.272,-40.371c76.535,-21.812 82.922,-62.319 193.565,-60.553Z" style="fill:#ffcd00;"/><path d="M1187.91,415.79c0,0 -103.647,57.613 -138.246,71.155c-34.598,13.541 -97.154,51.305 -155.626,49.235c0,0 64.075,28.357 293.872,-120.39Z" style="fill:#ffcd00;"/><path d="M1187.91,415.79c0,0 -145.588,126.568 -201.683,136.989c0,0 56.775,11.647 201.683,-136.989Z" style="fill:#ffcd00;"/></g><g><path d="M863.841,88.116c0,0 1.283,-2.575 -57.486,50.107c-58.769,52.683 -70.825,116.968 -81.551,157.592c-10.726,40.623 5.158,82.594 47.763,97.105c42.604,14.511 71.547,-9.266 89.639,-54.487c18.092,-45.221 26.539,-125.475 16.556,-171.366c-9.983,-45.892 -11.951,-48.137 -14.921,-78.951Z" style="fill:#ffdc00;"/><path d="M728.281,353.259c0,0 2.232,-46.78 22.734,-79.566c0,0 -19.26,58.029 -17.289,89.664c0,0 1.658,-28.216 27.417,-64.707c0,0 -18.246,46.215 -12.997,80.865c0,0 22.903,-60.352 39.646,-76.327c0,0 -25.834,55.496 -31.653,82.037l8.747,4.657c0,0 40.591,-35.102 52.112,-63.998c0,0 -26.452,59.64 -40.819,68.185c0,0 31.408,1.444 61.962,-79.787c0,0 -25.304,70.118 -36.053,82.597c-10.749,12.479 -41.544,0.213 -41.544,0.213l-17.67,-11.797c0,0 -16.555,-13.772 -14.593,-32.036Z" style="fill:#fcc119;"/><path d="M863.841,88.116c0,0 -48.388,50.655 -60.021,83.583c-11.633,32.929 -20.546,75.679 -31.078,97.317c-10.531,21.639 -31.67,85.711 -24.596,110.499c0,0 -1.156,-22.808 36.249,-104.791c33.034,-72.402 6.344,-103.535 79.446,-186.608Z" style="fill:#ffcd00;"/><path d="M863.841,88.116c0,0 -23.367,116.259 -35.499,151.376c-12.132,35.118 -23.958,107.225 -63.456,150.39c0,0 63.14,-30.381 98.955,-301.766Z" style="fill:#ffcd00;"/><path d="M863.841,88.116c0,0 1.918,192.903 -26.531,242.36c0,0 45.687,-35.662 26.531,-242.36Z" style="fill:#ffcd00;"/></g><g><path d="M245.042,160.179c0,0 12.565,22.297 32.632,107.792c19.469,82.949 37.965,103.449 63.341,141.044c25.375,37.594 70.948,70.868 113.026,46.574c42.078,-24.293 27.209,-91.577 3.335,-138.424c-23.874,-46.847 -49.888,-78.938 -94.265,-103.454c-44.378,-24.517 -90.925,-34.038 -118.069,-53.532Z" style="fill:#ffdc00;"/><path d="M382.542,450.549c0,0 -24.877,-23.641 -28.06,-43.542c-3.184,-19.9 -7.296,-18.308 -7.296,-18.308c0,0 10.384,4.895 16.163,26.782c5.779,21.887 23.208,33.759 41.476,45.484c0,0 -20.748,-23.66 -26.915,-48.583c0,0 20.596,41.43 49.081,51.405c0,0 -5.198,12.08 -44.449,-13.238Z" style="fill:#fcc119;"/><path d="M446.159,459.465c0,0 -9.776,-23.915 -24.631,-45.282c0,0 31.381,32.876 31.819,41.802c0,0 -10.627,-59.204 -30.48,-82.414c0,0 41.039,49.116 40.697,74.932c0,0 -5.15,8.834 -17.405,10.962Z" style="fill:#fcc119;"/><path d="M473.318,435.459c0,0 -3.481,-31.238 -26.185,-55.973c0,0 28.777,32.834 30.837,43.828c0,0 -3.441,-49.611 -21.817,-80.933c0,0 18.083,36.334 24.239,51.647c6.156,15.312 1.496,34.11 -7.074,41.431Z" style="fill:#fcc119;"/><path d="M245.042,160.179c0,0 50.539,116.169 100.57,203.581c50.03,87.413 90.492,98.821 90.492,98.821c0,0 -90.942,-83.799 -191.062,-302.402Z" style="fill:#ffcd00;"/><path d="M245.042,160.179c0,0 188.553,173.943 220.111,286.741c0,0 -53.455,-172.939 -220.111,-286.741Z" style="fill:#ffcd00;"/><path d="M480.063,411.952c0,0 -51.085,-124.628 -115.819,-183.371c0,0 82.492,55.199 115.819,183.371" style="fill:#ffcd00;"/></g><g><path d="M349.921,1166.13c0,0 15.436,-20.414 85.835,-72.913c68.302,-50.934 79.725,-76.072 104.081,-114.335c24.355,-38.263 36.693,-93.325 -2.366,-122.223c-39.059,-28.899 -94.83,11.57 -128.27,52.147c-33.439,40.576 -52.493,77.229 -57.277,127.703c-4.784,50.473 5.049,96.955 -2.003,129.621Z" style="fill:#ffdc00;"/><path d="M561.363,924.239c0,0 -11.758,32.241 -28.738,43.097c-16.979,10.856 -13.879,13.992 -13.879,13.992c0,0 0.347,-11.475 18.114,-25.503c17.766,-14.029 21.702,-34.746 25.169,-56.175c0,0 -13.422,28.463 -33.819,44.058c0,0 29.78,-35.41 27.567,-65.51c0,0 13.15,-0.051 5.586,46.041Z" style="fill:#fcc119;"/><path d="M544.169,862.344c0,0 -18.032,18.503 -31.702,40.646c0,0 17.633,-41.888 25.644,-45.849c0,0 -50.054,33.356 -63.42,60.818c0,0 28.673,-57.222 52.484,-67.205c0,0 10.155,1.2 16.994,11.59Z" style="fill:#fcc119;"/><path d="M511.323,847.012c0,0 -27.258,15.651 -40.886,46.335c0,0 18.633,-39.483 27.893,-45.757c0,0 -44.122,22.94 -65.517,52.283c0,0 26.108,-31.073 37.695,-42.825c11.586,-11.752 30.684,-14.975 40.815,-10.036Z" style="fill:#fcc119;"/><path d="M349.921,1166.13c0,0 86.375,-92.675 146.583,-173.416c60.207,-80.74 54.532,-122.394 54.532,-122.394c0,0 -40.578,116.815 -201.115,295.81Z" style="fill:#ffcd00;"/><path d="M349.921,1166.13c0,0 84.315,-242.279 175.169,-316.204c0,0 -137.273,117.99 -175.169,316.204Z" style="fill:#ffcd00;"/><path d="M487.077,850.202c0,0 -93.915,96.549 -121.968,179.34c0,0 17.72,-97.662 121.967,-179.34" style="fill:#ffcd00;"/></g><g><path d="M1260.64,551.995c0,0 -25.571,-1.075 -108.803,-29.084c-80.752,-27.176 -107.923,-22.262 -153.246,-20.513c-45.323,1.749 -97.621,22.94 -99.154,71.503c-1.533,48.563 63.483,71.391 115.878,75.794c52.394,4.404 93.377,-0.788 137.602,-25.579c44.225,-24.791 76.85,-59.329 107.723,-72.121Z" style="fill:#ffdc00;"/><path d="M941.404,515.796c0,0 33.203,-8.679 51.793,-0.896c18.589,7.784 19.403,3.45 19.403,3.45c0,0 -9.633,6.245 -31.279,-0.38c-21.646,-6.626 -40.92,1.929 -60.514,11.273c0,0 31.043,-5.162 55.473,2.735c0,0 -46.063,-4.335 -69.554,14.614c0,0 -7.527,-10.784 34.678,-30.796Z" style="fill:#fcc119;"/><path d="M900.296,565.159c0,0 25.476,4.298 51.463,2.936c0,0 -44.478,9.34 -52.294,5.007c0,0 55.914,22.175 86.101,17.536c0,0 -63.37,8.988 -85.129,-4.909c0,0 -4.793,-9.033 -0.141,-20.57Z" style="fill:#fcc119;"/><path d="M906.381,600.893c0,0 28.382,13.506 61.369,7.25c0,0 -43.07,7.148 -53.499,3.105c0,0 43.973,23.225 80.276,24.117c0,0 -40.408,-3.783 -56.665,-6.622c-16.257,-2.84 -29.776,-16.708 -31.481,-27.85Z" style="fill:#fcc119;"/><path d="M1260.64,551.995c0,0 -125.36,-18.282 -226.014,-21.838c-100.655,-3.556 -131.676,24.815 -131.676,24.815c0,0 119.147,-33.115 357.69,-2.977Z" style="fill:#ffcd00;"/><path d="M1260.64,551.995c0,0 -247.201,68.553 -359.693,35.918c0,0 175.142,45.726 359.693,-35.918Z" style="fill:#ffcd00;"/><path d="M922.803,619.015c0,0 132.837,22.276 216.877,-1.774c0,0 -90.388,41.009 -216.876,1.774" style="fill:#ffcd00;"/></g><g><path d="M1137.35,295.135c0,0 -23.574,9.961 -110.791,20.228c-84.618,9.96 -107.08,26.018 -147.303,46.978c-40.224,20.96 -78.44,62.476 -59.063,107.032c19.378,44.556 87.912,37.394 137.159,18.973c49.247,-18.421 84.075,-40.637 113.454,-81.957c29.379,-41.319 44.105,-86.49 66.544,-111.254Z" style="fill:#ffdc00;"/><path d="M833.29,398.903c0,0 26.304,-22.042 46.436,-22.955c20.133,-0.912 19.016,-5.177 19.016,-5.177c0,0 -6.038,9.764 -28.438,13.03c-22.401,3.265 -36.167,19.239 -49.884,36.064c0,0 25.855,-17.939 51.316,-21.246c0,0 -43.494,15.776 -56.628,42.95c0,0 -11.414,-6.531 18.182,-42.666Z" style="fill:#fcc119;"/><path d="M817.234,461.102c0,0 24.867,-7.007 47.778,-19.349c0,0 -36.215,27.46 -45.133,26.885c0,0 60.026,-3.861 85.332,-20.961c0,0 -53.443,35.22 -79.054,31.96c0,0 -8.195,-6.117 -8.923,-18.535Z" style="fill:#fcc119;"/><path d="M838.014,490.803c0,0 31.431,0.075 58.576,-19.685c0,0 -35.879,24.878 -47.035,25.681c0,0 49.681,2.194 82.88,-12.52c0,0 -38.146,13.856 -54.056,18.24c-15.91,4.385 -34.061,-2.372 -40.365,-11.716Z" style="fill:#fcc119;"/><path d="M1137.35,295.135c0,0 -121.14,37.072 -213.651,76.893c-92.511,39.821 -108.423,78.732 -108.423,78.732c0,0 93.549,-80.878 322.074,-155.625Z" style="fill:#ffcd00;"/><path d="M1137.35,295.135c0,0 -194.156,167.664 -309.8,186.259c0,0 177.876,-33.547 309.8,-186.259Z" style="fill:#ffcd00;"/><path d="M860.606,500.164c0,0 129.608,-36.658 195.297,-94.331c0,0 -64.177,75.718 -195.296,94.331" style="fill:#ffcd00;"/></g><g><path d="M1100.2,1018.97c0,0 -17.907,-18.285 -59.418,-95.673c-40.274,-75.083 -63.446,-90.098 -97.687,-119.844c-34.241,-29.745 -86.873,-50.09 -121.23,-15.734c-34.356,34.356 -2.579,95.499 32.606,134.571c35.185,39.072 68.618,63.336 117.829,75.531c49.211,12.196 96.636,9.345 127.9,21.149Z" style="fill:#ffdc00;"/><path d="M892.23,774.078c0,0 30.147,16.398 38.373,34.796c8.226,18.398 11.786,15.796 11.786,15.796c0,0 -11.298,-2.041 -22.544,-21.686c-11.247,-19.646 -31.155,-26.602 -51.835,-33.2c0,0 26.165,17.484 38.572,39.962c0,0 -30.617,-34.688 -60.713,-36.951c0,0 1.894,-13.013 46.361,1.283Z" style="fill:#fcc119;"/><path d="M828.473,781.931c0,0 15.632,20.57 35.511,37.364c0,0 -38.82,-23.633 -41.553,-32.142c0,0 25.588,54.437 50.771,71.717c0,0 -52.353,-36.821 -58.704,-61.846c0,0 2.688,-9.866 13.975,-15.093Z" style="fill:#fcc119;"/><path d="M808.452,812.149c0,0 11.448,29.272 39.78,47.288c0,0 -36.294,-24.267 -41.13,-34.353c0,0 16.164,47.03 42.02,72.528c0,0 -26.871,-30.416 -36.78,-43.613c-9.909,-13.197 -10.273,-32.561 -3.89,-41.85Z" style="fill:#fcc119;"/><path d="M1100.2,1018.97c0,0 -78.883,-99.13 -149.833,-170.615c-70.95,-71.484 -112.985,-72.032 -112.985,-72.032c0,0 109.531,57.406 262.818,242.647Z" style="fill:#ffcd00;"/><path d="M1100.2,1018.97c0,0 -227.147,-119.214 -286.824,-220.002c0,0 96.393,153.212 286.824,220.002Z" style="fill:#ffcd00;"/><path d="M808.021,836.6c0,0 81.601,107.16 159.333,147.147c0,0 -93.968,-31.967 -159.332,-147.146" style="fill:#ffcd00;"/></g><g><path d="M866.295,1197.91c0,0 -6.365,-24.789 -3.621,-112.565c2.663,-85.161 -9.897,-109.75 -24.678,-152.631c-14.781,-42.881 -50.189,-86.817 -97.12,-74.241c-46.932,12.575 -49.984,81.414 -39.048,132.844c10.935,51.43 27.757,89.16 64.277,124.327c36.52,35.167 79.017,56.411 100.19,82.266Z" style="fill:#ffdc00;"/><path d="M808.634,881.848c0,0 17.91,29.274 15.835,49.32c-2.076,20.047 2.308,19.572 2.308,19.572c0,0 -8.764,-7.415 -8.681,-30.052c0.083,-22.637 -13.679,-38.615 -28.29,-54.669c0,0 13.918,28.224 13.423,53.894c0,0 -9.17,-45.349 -34.104,-62.357c0,0 8.148,-10.323 39.509,24.292Z" style="fill:#fcc119;"/><path d="M749.493,856.77c0,0 3.253,25.63 12.071,50.114c0,0 -21.802,-39.878 -19.915,-48.613c0,0 -5.059,59.938 8.111,87.494c0,0 -26.929,-58.064 -19.917,-82.912c0,0 7.261,-7.2 19.65,-6.083Z" style="fill:#fcc119;"/><path d="M717.045,872.929c0,0 -4.722,31.075 10.806,60.843c0,0 -19.298,-39.163 -18.442,-50.316c0,0 -9.518,48.811 0.126,83.821c0,0 -8.063,-39.776 -10.046,-56.159c-1.983,-16.384 7.384,-33.336 17.556,-38.189Z" style="fill:#fcc119;"/><path d="M866.295,1197.91c0,0 -18.75,-125.291 -44.452,-222.674c-25.702,-97.382 -61.832,-118.874 -61.832,-118.874c0,0 66.154,104.48 106.284,341.548Z" style="fill:#ffcd00;"/><path d="M866.295,1197.91c0,0 -137.108,-216.817 -138.396,-333.94c0,0 6.873,180.882 138.396,333.94Z" style="fill:#ffcd00;"/><path d="M704.446,893.889c0,0 17.088,133.603 64.413,207.099c0,0 -65.395,-74.668 -64.413,-207.098" style="fill:#ffcd00;"/></g><g><path d="M1197,837.47c0,0 -62.389,-62.606 -104.079,-91.511c-41.73,-28.932 -82.714,-36.013 -123.593,-43.946c-40.878,-7.932 -79.253,2.763 -90.798,45.85c-11.545,43.086 0.946,82.405 59.21,97.298c46.768,11.954 117.145,25.132 161.87,12.238c44.724,-12.893 67.114,-14.963 97.39,-19.929Z" style="fill:#ffdc00;"/><path d="M949.047,700.996c0,0 55.884,11.831 76.263,28.405c0,0 -65.561,-22.836 -122.632,-17.875c0,0 -7.853,15.246 46.12,28.715c0,0 -47.349,-4.017 -64.966,-6.573c0,0 64.318,14.649 93.117,23.996c0,0 -67.231,-11.927 -99.706,-4.567c0,0 -9.93,15.613 -2.574,19.722c0,0 67.001,37.619 102.157,39.813c0,0 -57.835,-5.189 -75.273,-10.144c-17.439,-4.954 57.892,36.113 105.632,47.322c47.74,11.208 -97.239,-10.591 -127.03,-46.469c-29.791,-35.877 -17.878,-107.288 68.892,-102.345Z" style="fill:#fcc119;"/><path d="M1197,837.47c0,0 -85.994,-65.704 -125.376,-78.682c-39.382,-12.977 -140.411,-48.773 -177.739,-39.676c0,0 215.474,45.578 303.115,118.358Z" style="fill:#ffcd00;"/><path d="M876.938,754.499c0,0 67.962,-6.879 148.564,33.715c0,0 -132.556,-31.495 -148.564,-33.715Z" style="fill:#ffcd00;"/><path d="M1152.26,844.733c0,0 -213.722,-34.092 -275.319,-90.234c0,0 75.846,82.709 275.319,90.234" style="fill:#ffcd00;"/></g></svg>